<?xml version="1.0" standalone="no"?>
<!DOCTYPE svg PUBLIC "-//W3C//DTD SVG 20010904//EN"
 "http://www.w3.org/TR/2001/REC-SVG-20010904/DTD/svg10.dtd">
<svg version="1.0" xmlns="http://www.w3.org/2000/svg"
 width="512.000000pt" height="512.000000pt" viewBox="0 0 512.000000 512.000000"
 preserveAspectRatio="xMidYMid meet">

<g transform="translate(0.000000,512.000000) scale(0.100000,-0.100000)"
fill="#000000" stroke="none">
<path d="M715 4046 c-390 -453 -710 -828 -710 -834 0 -5 225 -205 500 -443
l500 -432 5 149 c5 140 7 152 33 196 28 49 66 82 127 114 27 14 65 19 163 22
70 2 127 6 127 7 0 1 -113 249 -250 551 -197 431 -247 551 -238 560 7 6 240
114 516 240 l504 229 -29 25 c-256 224 -508 435 -521 437 -11 1 -262 -282
-727 -821z"/>
</g>
</svg>
